<svg xmlns="http://www.w3.org/2000/svg" viewBox="0 0 1024 1024">
  <defs>
    <linearGradient id="bg" x1="0" y1="0" x2="1" y2="1">
      <stop offset="0%" stop-color="#6366f1"/>
      <stop offset="100%" stop-color="#4338ca"/>
    </linearGradient>
  </defs>
  <!-- 圆角方形底色 -->
  <rect x="48" y="48" width="928" height="928" rx="200" fill="url(#bg)"/>
  <!-- 白色闪电符号（Font Awesome bolt 路径，居中缩放） -->
  <path transform="translate(142 100) scale(1.6)" fill="#ffffff" d="M349.4 44.6c5.9-13.7 1.5-29.7-10.6-38.5s-28.6-8-39.9 1.8l-256 224c-10 8.8-13.6 22.9-8.9 35.3S50.7 288 64 288l111.5 0L98.6 467.4c-5.9 13.7-1.5 29.7 10.6 38.5s28.6 8 39.9-1.8l256-224c10-8.8 13.6-22.9 8.9-35.3s-16.6-20.7-30-20.7l-111.5 0L349.4 44.6z"/>
</svg>